<svg xmlns="http://www.w3.org/2000/svg" viewBox="0 0 717.37 955.75" width="200">
    <path
        d="M90.63 121.192c-176.44 257.39-42.345 382.37-4.04 454.57 34.344 81.683 363.65 241.54 545.48-2.02 66.538-68.527 107.65-164.8 56.567-361.63-22.645-21.601-4.166-17.57-20.129-41.786-38-57.62-110.87-143.32-242.53-164.28-237.89-11.3-266.1 60.02-335.37 115.15z"
        stroke="#000" fill="#fff" />
    <path
        d="M457.08 900.652c-2.747-29.202-6.58-54.68-8.517-56.617-1.938-1.937-30.586 4.76-63.663 14.882-46.51 14.233-59.676 19.889-58.088 24.955 1.129 3.603 3.299 11.464 4.822 17.469 2.585 10.191 2.405 10.336-2.707 2.184-8.526-13.597-15.717-19.652-23.34-19.652-7.91 0-15.527 16.454-11.957 25.828 1.567 4.114.529 5.048-3.111 2.799-3.263-2.017-4.408-7.583-2.843-13.818 1.826-7.278.772-10.442-3.479-10.442-7.452 0-14.382 7.968-17.09 19.652-1.128 4.865-1.643 3.377-1.163-3.359.474-6.65-1.75-14.26-4.945-16.912-11.274-9.356-6.562-32.184 12.615-61.117 20.386-30.757 74.43-86.335 103.03-105.96 32.15-22.056 23.983-9.62-12.613 19.205-54.963 43.293-110.7 117.23-103.17 136.85 4.172 10.872 10.774 8.824 18.267-5.668 7.917-15.31 14.061-17.12 102.36-30.179 34.635-5.121 63.841-10.18 64.901-11.24 2.833-2.832-24.286-92.659-33.245-110.12l-7.67-14.952-52.214-1.384c-31.322-.831-63.568-4.41-80.59-8.945-124.02-33.038-217.17-121.7-253.53-241.32a24083.454 24083.454 0 00-13.13-43.069c-5.171-16.855-5.435-109.72-.321-112.88 2.086-1.29 5.059-10.26 6.606-19.937 8.118-50.768 48.01-123.75 92.227-168.74 49.93-50.796 113.89-86.01 182.85-100.67 44.865-9.536 134.08-5.819 175.26 7.302 157.34 50.139 254.31 180.91 252.6 340.64-.383 35.905-3.172 60.11-9.782 84.906-31.165 116.9-120.91 211.86-231.9 245.36-20.416 6.162-40.07 12.208-43.672 13.436-3.603 1.228 10.484 5.756 31.304 10.06 41.817 8.649 102.96 27.509 123.55 38.11 20.142 10.37 41.666 27.773 41.666 33.687 0 2.9 4.913 9.887 10.918 15.528 6.005 5.641 10.918 12.222 10.918 14.624s-4.549.094-10.108-5.128c-13.5-12.682-22.42-12.523-18.436.33 7.145 23.052 7.974 30.777 2.973 27.686-2.75-1.7-5-6.512-5-10.694 0-8.151-7.943-18.084-14.46-18.084-2.19 0-2.69 6.878-1.113 15.285 1.791 9.55 1.154 15.285-1.698 15.285-2.51 0-4.565-4.797-4.565-10.66s-1.474-11.526-3.275-12.583c-1.802-1.058-32.754 4.274-68.783 11.848l-65.508 13.771 1.362 12.586c4.01 37.037 7.21 102.95 4.999 102.95-1.404 0-4.8-23.893-7.548-53.095zM294.5 870.513c0-2.26-1.965-4.11-4.367-4.11s-4.367 3.064-4.367 6.81 1.965 5.593 4.367 4.108c2.402-1.484 4.367-4.548 4.367-6.808zm17.469-2.29c0-3.803-2.334-6.136-5.186-5.186-8.098 2.7-9.44 12.101-1.729 12.101 3.803 0 6.915-3.111 6.915-6.914zm46.096-8.248c30.08-10.707 27.055-11.443-17.676-4.298-20.634 3.296-25.068 5.551-21.683 11.028 3.52 5.694 5.319 5.387 39.359-6.73zm163.53-52.527c32.225-10.808 67.026-19.97 77.336-20.36 12.239-.463 18.745-2.706 18.745-6.463 0-15.22-93.27-52.742-157.45-63.342-17.117-2.827-33.659-7.677-36.76-10.778-9.638-9.639-11.052-1.354-2.599 15.23 6.756 13.255 12.982 31.924 33.318 99.905 2.29 7.654 2.251 7.663 67.412-14.192zm53.875-3.055c13.204-6.925 4.697-9.121-13.183-3.404-22.807 7.292-29.92 14.863-10.119 10.769 8.407-1.739 18.893-5.053 23.302-7.365zm-178.26-108.44c1.529-2.474-2.369-13.283-8.66-24.02-6.293-10.737-9.393-19.522-6.889-19.522 2.504 0 9.957 9.899 16.561 21.997 11.558 21.172 12.582 21.901 27.294 19.44 23.198-3.88 69.445-19.509 93.894-31.731 70.383-35.184 126.24-92.55 159.08-163.39 23.812-51.357 32.282-88.748 32.458-143.28.155-47.94-5.537-82.765-19.77-120.96l-8.458-22.699-16.452 16.452c-19.318 19.318-48.852 29.236-74.735 25.097-50.925-8.143-93.473-35.86-110.43-71.939l-9.168-19.503 8.977-15.678c13.844-24.178 41.13-37.568 75.62-37.109 16.011.213 35.817 3.564 45.433 7.687 9.376 4.02 17.857 6.5 18.846 5.51 2.895-2.894-41.206-42.545-65.56-58.947-92.69-62.421-224.22-74.956-329.78-31.428-80.7 33.278-147.46 97.194-184.75 176.88-17.876 38.199-34.35 107.48-34.35 144.45 0 34.643 15.206 101.1 31.477 137.57 56.181 125.91 182.25 207.58 322.99 209.23 18.775.22 34.814-1.59 36.368-4.104zm137.15-313.68c17.001-16.469 30.91-33.445 30.91-37.724 0-6.989-2.996-7.475-29.478-4.783-48.408 4.922-99.827 20.076-194.34 57.276-4.203 1.655-7.643 1.043-7.643-1.36 0-4.311 87.402-38.03 132.75-51.214 33.112-9.626 90.114-15.458 99.9-10.222 14.57 7.797-1.599 36.342-35.58 62.818-31.456 24.506-29.794 17.442 3.478-14.791zm-257.02-3.643c-.169-5.263 1.658-10.783 4.06-12.268 5.166-3.193 5.166 1.08 0 13.102-3.618 8.42-3.764 8.39-4.06-.834zm353.5-36.407c-.035-8.473-3.215-19.9-7.063-25.394-10.051-14.35-4.5-16.497 6.498-2.514 9.895 12.579 11.696 26.192 4.865 36.762-3.175 4.913-4.25 2.7-4.3-8.855zm-398.93-115.04c-25.109-7.084-40.879-18.031-54.229-37.647-15.654-23.001-13.093-37.356 10.918-61.18 47.574-47.202 139.7-56.958 193.78-20.52 66.266 44.658 9.873 118.47-94.423 123.59-21.472 1.054-43.072-.58-56.042-4.239zm109.83-9.752c21.114-6.928 62.826-37.44 57.573-42.113-1.201-1.069-23.801.615-50.222 3.742-28.157 3.333-73.808 4.905-110.3 3.8l-62.262-1.886 6.541 9.983c7.971 12.165 34.406 27.497 57.338 33.255 23.136 5.81 73.165 2.461 101.33-6.781zm-58.504-51.787c-2.828-11.266 7.663-24.192 19.634-24.192 11.922 0 23.507 15.208 20 26.256-2.89 9.103-2.149 9.322 22.534 6.64 59.611-6.473 58.275-5.973 58.275-21.816 0-12.584-1.684-14.692-13.647-17.085-31.125-6.225-139.38-1.33-195.23 8.829-15.611 2.84-24.909 17.057-17.32 26.484 4.33 5.38 60.66 9.22 91.875 6.265 14.49-1.372 16.066-2.664 13.878-11.382zM241.98 132.76c20.354-2.425 63.097-4.41 94.986-4.41s57.966-1.473 57.95-3.275c-.066-7.228-29.963-22.964-56.585-29.782-30.695-7.861-56.922-6.6-94.43 4.539-34.492 10.244-79.083 46.429-48.754 39.563 5.404-1.224 26.479-4.209 46.833-6.634zM649.09 237.1c15.116-7.712 25.36-19.517 25.36-29.225 0-2.215-16.213-5.365-36.029-7.001-33.328-2.752-119.12-16.535-141.93-22.803-11.894-3.268-12.338.973-1.78 16.985 11.812 17.914 38.997 36.25 66.196 44.652 13.211 4.08 25.985 8.128 28.387 8.995 8.978 3.242 44.035-3.56 59.8-11.603zm18.876-51.846c-8.604-16.637-16.045-20.382-48.106-24.21l-26.203-3.128 10.012 9.58c6.411 6.134 9.089 12.486 7.446 17.662-2.846 8.968 4.929 11.228 42.703 12.413l20.856.654-6.708-12.972zm-93.107-14.884l11.772-14.754-20.506-2.6c-71.278-9.039-78.329-8.916-81.61 1.422-4.133 13.021-.527 15.591 32.717 23.317 40.956 9.52 44.502 9.065 57.628-7.385zm68.69-22.792c-33.975-36.4-110.45-45.372-142.93-16.77l-11.774 10.369 17.469.43c9.608.235 41.051 3.978 69.875 8.317 28.823 4.34 58.153 8.138 65.177 8.443l12.771.555-10.588-11.343z"
        stroke="#000" stroke-width="4.1" />
</svg>